<?xml version="1.0" encoding="UTF-8"?>
<svg id="Ebene_1" data-name="Ebene 1" xmlns="http://www.w3.org/2000/svg" viewBox="0 0 512 512">
  <defs>
    <style>
      .cls-1 {
        fill: #063;
      }

      .cls-2 {
        fill: #3c0;
      }

      .cls-3 {
        fill: #0cc;
      }
    </style>
  </defs>
  <path class="cls-1" d="M217.609716,291.327428c.000016-49.336691,14.071327-95.442026,38.389689-134.541714C210.876182,84.2354,130.436463,35.829568,38.891257,35.829538c-21.168953-.000007-38.391251,17.222279-38.391257,38.391232-.000007,21.168953,17.222279,38.391251,38.391232,38.391257,98.543991.000032,178.715283,80.17141,178.715283,178.7154,0,.925002.0032,0,.0032,0Z"/>
  <path class="cls-3" d="M473.106278,35.829805c-91.543729,0-171.983041,48.405108-217.106081,120.95585-24.319,39.099839-38.390746,85.205044-38.390746,134.541721,0,21.167888,17.223602,38.390002,38.390746,38.390746,21.167144-.000744,38.38777-17.222114,38.38777-38.390746h.005953c0-98.543887,80.168473-178.715336,178.712359-178.715336,21.17012,0,38.393722-17.222114,38.393722-38.39149,0-21.168632-17.223602-38.390746-38.393722-38.390746Z"/>
  <path class="cls-2" d="M328.932881,369.26133c-40.216452,40.214596-105.651377,40.216404-145.865973.001781-14.968685-14.969152-39.32464-14.96916-54.293335-.000018-7.251169,7.251393-11.244697,16.891266-11.244701,27.145635-.000003,10.256198,3.993519,19.896074,11.244683,27.147471,33.929294,33.928859,79.1122,52.614247,127.225847,52.614262,48.113875.000016,93.297251-18.685342,127.226567-52.616008,7.251397-7.251393,11.245154-16.891266,11.245158-27.145635.000003-10.256198-3.993747-19.896074-11.24514-27.147471-14.968228-14.967323-39.324869-14.967331-54.293106-.000018Z"/>
</svg>