<?xml version="1.0" encoding="UTF-8" standalone="no"?>
<svg width="370px" height="257px" viewBox="0 0 370 257" version="1.1" xmlns="http://www.w3.org/2000/svg" xmlns:xlink="http://www.w3.org/1999/xlink">
    <!-- Generator: Sketch 46.2 (44496) - http://www.bohemiancoding.com/sketch -->
    <title>Page 1</title>
    <desc>Created with Sketch.</desc>
    <defs>
        <polygon id="path-1" points="80.6179864 0.848669783 0.779778507 0.848669783 0.779778507 112.769662 80.6179864 112.769662 80.6179864 0.848669783"></polygon>
        <polygon id="path-3" points="0.237259113 114.471738 82.5900522 114.471738 82.5900522 0.26999541 0.237259113 0.26999541"></polygon>
        <polygon id="path-5" points="76.9602801 0.771653549 76.9602801 110.392158 0.947830472 110.392158 0.947830472 0.771653549"></polygon>
    </defs>
    <g id="Page-1" stroke="none" stroke-width="1" fill="none" fill-rule="evenodd">
        <g id="Artboard" transform="translate(-416.000000, -92.000000)">
            <g id="Page-1" transform="translate(416.000000, 92.000000)">
                <g id="Group-5" transform="translate(11.000000, 41.000000)" fill="#FF3300">
                    <polygon id="Fill-1" points="4.9435 13.5024434 36.4075 9.25629321 38.0475 21.00882 39.9755 8.7810072 70.4915 4.6762644 61.8155 50.7554393 85.1075 101.190748 52.3595 105.601873 48.5275 96.0961533 49.8995 105.92004 18.4395 110.158334"></polygon>
                    <path d="M75.4315,0.0498853909 L64.4675,1.52287922 L42.3835,4.49243477 L39.8275,4.83809733 L39.8235,4.83024136 L31.8955,5.89865288 L8.3595,9.07639156 L0.4355,10.1448031 L1.5235,17.9261385 L13.9315,106.800694 L15.0195,114.582029 L22.9435,113.517546 L46.4795,110.347663 L49.7915,109.903801 L49.7955,109.911657 L56.0115,109.074997 L80.3355,105.799058 L90.9635,104.369272 L86.5315,94.7692805 L65.9795,50.257371 L73.4195,10.7340006 L75.4315,0.0498853909 Z M65.5515,9.30421461 L57.6555,51.2550788 L79.2475,98.0137949 L54.9235,101.289733 L40.0755,64.4609595 L45.3915,102.566328 L21.8595,105.732283 L9.4475,16.857727 L32.9875,13.6839163 L37.8075,48.2148195 L43.4715,12.2737702 L65.5515,9.30421461 Z" id="Fill-3"></path>
                </g>
                <polygon id="Fill-6" fill="#29ABE2" points="5 40.785842 36.3996308 36.5590973 38.0362756 48.2579132 39.9603313 36.0859835 70.4139015 32 61.7556509 77.8685857 85 128.073397 52.3189961 132.464363 48.4948356 123.002085 49.8640287 132.781075 18.4683898 137"></polygon>
                <path d="M63.6573726,30.4750669 L41.7012063,33.4567529 L39.1560249,33.8038274 L39.1560249,33.7959394 L31.2778932,34.8687153 L7.87415492,38.0594348 L0,39.1361547 L1.07772524,46.9453323 L13.4178781,136.182934 L14.4995802,144 L22.3737351,142.927224 L45.7734965,139.748337 L49.066325,139.298717 L49.0703018,139.306605 L55.2503204,138.470471 L79.4335204,135.177207 L90,133.74158 L85.5936547,124.102373 L65.1606204,79.4086357 L72.5575538,39.7238151 L74.5579073,29 L63.6573726,30.4750669 Z M42.7829084,41.2738185 L64.7390747,38.2921325 L56.884804,80.4104191 L78.3518183,127.360141 L54.1686183,130.653406 L39.4065662,93.6741889 L44.6957713,131.931271 L21.2960099,135.110158 L8.95585701,45.8725564 L32.3595952,42.6857809 L37.1516946,77.3577406 L42.7829084,41.2738185 Z" id="Fill-7" fill="#FFFFFF"></path>
                <g id="Group-74" transform="translate(62.000000, 0.000000)">
                    <g id="Group-12" transform="translate(11.908724, 34.429239)" fill="#FF3300">
                        <path d="M39.3764058,105.881139 C36.3039551,105.881139 33.3307438,105.51404 30.5401329,104.799578 C25.8123697,103.579862 21.7594341,101.282533 18.4885047,97.9667995 C15.2374231,94.6431718 13.0303397,90.8063949 11.9188588,86.5512041 C10.9224956,82.7617948 9.80307562,76.3237464 8.50105518,66.8857489 L6.39321111,51.5899563 C5.12294726,42.3611658 4.46002831,35.9546958 4.37269767,32.0034472 C4.26154959,27.546944 5.28966939,23.2680694 7.41736133,19.2852423 C9.55299243,15.2787315 12.7564391,11.9511565 16.9403706,9.40909443 C21.0091845,6.94597841 25.8877916,5.31969027 31.4491655,4.56970302 C33.4538006,4.29733923 35.4425575,4.15523638 37.3519228,4.15523638 C40.4442214,4.15523638 43.4372806,4.5223354 46.2556785,5.24074424 C51.0032896,6.46046035 55.0562252,8.76173702 58.3112763,12.0695755 C61.5504491,15.3813613 63.7615021,19.2220855 64.8809221,23.4812236 C65.8733158,27.2430018 66.9927358,33.6810502 68.2987258,43.1585207 L70.3986307,58.4464187 C71.6728641,67.6633673 72.3357831,74.0737846 72.4270833,78.0447697 C72.5382314,82.5012729 71.5101116,86.7801476 69.3824196,90.75508 C67.2388494,94.7734327 64.0274636,98.0931131 59.8475016,100.627281 C55.8302922,103.07066 50.9477156,104.696948 45.3466459,105.458777 C43.3181933,105.739036 41.305619,105.881139 39.3764058,105.881139" id="Fill-8"></path>
                        <path d="M37.3531137,0.209908712 C35.2651175,0.209908712 33.0937602,0.363853464 30.9025551,0.659901062 C24.8092582,1.48093974 19.418576,3.28485644 14.8892915,6.02823085 C10.070228,8.96107573 6.38249326,12.7939053 3.90944833,17.439879 C1.46022085,22.0187485 0.277287638,26.9568224 0.404314023,32.1080507 C0.495614237,36.1974548 1.17044191,42.749975 2.46055363,52.1248156 L4.5683977,67.4206082 C5.89026601,77.0164977 7.04144263,83.6045436 8.08544073,87.5636869 C9.36364372,92.4662351 11.9041714,96.8990545 15.639541,100.712148 C19.4344543,104.564714 24.1106131,107.2173 29.5449606,108.622539 C32.6610766,109.423842 35.9677322,109.830414 39.3775967,109.830414 C41.4894103,109.830414 43.6885546,109.668574 45.9075468,109.360685 C52.0326003,108.531751 57.4312216,106.723887 61.92478,103.988408 C66.7120869,101.095036 70.4037912,97.2582589 72.8927144,92.596496 C75.3379723,88.0294684 76.5209055,83.0953418 76.3978487,77.9441136 C76.3025789,73.8349729 75.6277512,67.2785054 74.33367,57.9076121 L72.233765,42.6276087 C70.9039576,32.9882989 69.752781,26.3963057 68.716722,22.4766354 C67.4266103,17.5543507 64.882113,13.1254786 61.1626217,9.32422745 C57.3796172,5.47955597 52.7074279,2.82302218 47.2572021,1.42173022 C44.10536,0.620428049 40.7748869,0.209908712 37.3531137,0.209908712 M41.9816376,86.4860736 C42.1999642,86.4860736 42.4301995,86.4742317 42.6723436,86.438706 C44.2641429,86.2255517 45.1850842,85.3847765 45.4351674,83.936117 C45.6852506,82.4795628 45.4510457,79.1204093 44.7285832,73.8468148 L39.0719395,32.806723 C38.4963512,28.6581093 37.9048845,26.0331539 37.2776918,24.9397515 C36.7417992,24.0081884 35.9200973,23.5424068 34.7967077,23.5424068 C34.6021985,23.5424068 34.3957807,23.5542487 34.1814236,23.5858271 C32.9548251,23.7516138 32.0934274,24.3516036 31.5734132,25.3818492 C31.0613381,26.4120949 31.1129425,29.2067842 31.7441049,33.8014429 L37.4920488,75.5204705 C38.2065722,80.7032772 38.8655216,83.8690128 39.4609578,85.0216248 C39.9571546,85.9966082 40.7987044,86.4860736 41.9816376,86.4860736 M37.3531137,8.10451135 C40.1357854,8.10451135 42.7715829,8.42819006 45.2684453,9.06370557 C49.3134417,10.1057931 52.7153671,12.0241816 55.4702518,14.8307128 C58.2291061,17.6490859 60.086867,20.8542946 61.0395649,24.4779172 C61.9922628,28.0857506 63.0958045,34.496168 64.3660683,43.6973273 L66.4659732,58.9852253 C67.7044805,67.9495466 68.371369,74.3481221 68.4586997,78.133584 C68.5499999,81.9229933 67.6965413,85.5071429 65.8784762,88.8978747 C64.0643807,92.2925538 61.3690396,95.0832959 57.7845138,97.2543116 C54.2118967,99.4292746 49.8771213,100.858198 44.8119442,101.545028 C42.9422746,101.801603 41.1281791,101.935811 39.3775967,101.935811 C36.6187424,101.935811 34.0107319,101.612132 31.5337174,100.976617 C27.4966601,99.9384765 24.0867956,98.0042989 21.3239718,95.2017149 C18.569087,92.3912364 16.7073566,89.1860277 15.7665674,85.5584578 C14.8099,81.9466771 13.7023887,75.5402071 12.4360944,66.3508896 L10.3282503,51.055097 C9.08974308,42.0828811 8.42682414,35.7079895 8.3394935,31.9146329 C8.24819328,28.1291709 9.10959095,24.5292321 10.9236865,21.1385003 C12.7338125,17.7359266 15.4291536,14.9530791 19.0136794,12.7741688 C22.590266,10.6110477 26.9210718,9.1663354 31.9822794,8.48345227 C33.8281315,8.23082499 35.6184096,8.10451135 37.3531137,8.10451135" id="Fill-10"></path>
                    </g>
                    <path d="M39.3764058,128.468474 C36.3039551,128.468474 33.3307438,128.101375 30.5401329,127.386913 C25.8123697,126.167197 21.7594341,123.869868 18.4885047,120.554135 C15.2374231,117.230507 13.0303397,113.39373 11.9188588,109.138539 C10.9224956,105.34913 9.80307562,98.9110817 8.50105518,89.4730842 L6.39321111,74.1772916 C5.12294726,64.9485011 4.46002831,58.5420311 4.37269767,54.5907825 C4.26154959,50.1342793 5.28966939,45.8554047 7.41736133,41.8725776 C9.55299243,37.8660668 12.7564391,34.5384918 16.9403706,31.9964297 C21.0091845,29.5333137 25.8877916,27.9070256 31.4491655,27.1570383 C33.4538006,26.8846745 35.4425575,26.7425717 37.3519228,26.7425717 C40.4442214,26.7425717 43.4372806,27.1096707 46.2556785,27.8280796 C51.0032896,29.0477957 55.0562252,31.3490723 58.3112763,34.6569108 C61.5504491,37.9686966 63.7615021,41.8094208 64.8809221,46.0685589 C65.8733158,49.8303371 66.9927358,56.2683856 68.2987258,65.745856 L70.3986307,81.033754 C71.6728641,90.2507026 72.3357831,96.6611199 72.4270833,100.632105 C72.5382314,105.088608 71.5101116,109.367483 69.3824196,113.342415 C67.2388494,117.360768 64.0274636,120.680448 59.8475016,123.214616 C55.8302922,125.657995 50.9477156,127.284284 45.3466459,128.046113 C43.3181933,128.326371 41.305619,128.468474 39.3764058,128.468474" id="Fill-13" fill="#29ABE2"></path>
                    <path d="M37.3531137,22.797244 C35.2651175,22.797244 33.0937602,22.9511888 30.9025551,23.2472364 C24.8092582,24.0682751 19.418576,25.8721918 14.8892915,28.6155662 C10.070228,31.548411 6.38249326,35.3812406 3.90944833,40.0272143 C1.46022085,44.6060838 0.277287638,49.5441578 0.404314023,54.695386 C0.495614237,58.7847901 1.17044191,65.3373103 2.46055363,74.712151 L4.5683977,90.0079436 C5.89026601,99.6038331 7.04144263,106.191879 8.08544073,110.151022 C9.36364372,115.05357 11.9041714,119.48639 15.639541,123.299483 C19.4344543,127.152049 24.1106131,129.804635 29.5449606,131.209875 C32.6610766,132.011177 35.9677322,132.417749 39.3775967,132.417749 C41.4894103,132.417749 43.6885546,132.25591 45.9075468,131.94802 C52.0326003,131.119087 57.4312216,129.311223 61.92478,126.575743 C66.7120869,123.682371 70.4037912,119.845594 72.8927144,115.183831 C75.3379723,110.616804 76.5209055,105.682677 76.3978487,100.531449 C76.3025789,96.4223082 75.6277512,89.8658407 74.33367,80.4949474 L72.233765,65.214944 C70.9039576,55.5756342 69.752781,48.983641 68.716722,45.0639708 C67.4266103,40.141686 64.882113,35.7128139 61.1626217,31.9115628 C57.3796172,28.0668913 52.7074279,25.4103575 47.2572021,24.0090655 C44.10536,23.2077634 40.7748869,22.797244 37.3531137,22.797244 M41.9816376,109.073409 C42.1999642,109.073409 42.4301995,109.061567 42.6723436,109.026041 C44.2641429,108.812887 45.1850842,107.972112 45.4351674,106.523452 C45.6852506,105.066898 45.4510457,101.707745 44.7285832,96.4341501 L39.0719395,55.3940583 C38.4963512,51.2454446 37.9048845,48.6204892 37.2776918,47.5270868 C36.7417992,46.5955237 35.9200973,46.1297421 34.7967077,46.1297421 C34.6021985,46.1297421 34.3957807,46.141584 34.1814236,46.1731624 C32.9548251,46.3389491 32.0934274,46.9389389 31.5734132,47.9691845 C31.0613381,48.9994302 31.1129425,51.7941195 31.7441049,56.3887782 L37.4920488,98.1078059 C38.2065722,103.290612 38.8655216,106.456348 39.4609578,107.60896 C39.9571546,108.583944 40.7987044,109.073409 41.9816376,109.073409 M37.3531137,30.6918467 C40.1357854,30.6918467 42.7715829,31.0155254 45.2684453,31.6510409 C49.3134417,32.6931284 52.7153671,34.6115169 55.4702518,37.4180481 C58.2291061,40.2364212 60.086867,43.4416299 61.0395649,47.0652525 C61.9922628,50.6730859 63.0958045,57.0835033 64.3660683,66.2846626 L66.4659732,81.5725606 C67.7044805,90.5368819 68.371369,96.9354574 68.4586997,100.720919 C68.5499999,104.510329 67.6965413,108.094478 65.8784762,111.48521 C64.0643807,114.879889 61.3690396,117.670631 57.7845138,119.841647 C54.2118967,122.01661 49.8771213,123.445533 44.8119442,124.132363 C42.9422746,124.388938 41.1281791,124.523146 39.3775967,124.523146 C36.6187424,124.523146 34.0107319,124.199468 31.5337174,123.563952 C27.4966601,122.525812 24.0867956,120.591634 21.3239718,117.78905 C18.569087,114.978572 16.7073566,111.773363 15.7665674,108.145793 C14.8099,104.534012 13.7023887,98.1275424 12.4360944,88.9382249 L10.3282503,73.6424323 C9.08974308,64.6702164 8.42682414,58.2953248 8.3394935,54.5019682 C8.24819328,50.7165062 9.10959095,47.1165674 10.9236865,43.7258356 C12.7338125,40.3232619 15.4291536,37.5404144 19.0136794,35.3615041 C22.590266,33.198383 26.9210718,31.7536707 31.9822794,31.0707876 C33.8281315,30.8181603 35.6184096,30.6918467 37.3531137,30.6918467" id="Fill-15" fill="#FFFFFF"></path>
                    <g id="Group-21" transform="translate(70.452341, 21.161921)" fill="#FF3300">
                        <path d="M4.95668626,15.3892998 L42.4532872,10.2657027 L43.4496504,13.466964 C44.6524315,17.3353193 45.9306345,21.6655089 47.260442,26.3943759 L47.1095981,9.64202907 L84.8920084,4.49080085 L98.2813833,101.629939 L70.006104,105.47461 L69.2002804,99.6681302 L69.2161587,105.589082 L47.8916043,108.494296 L45.4384073,100.007598 L46.6292796,108.660083 L18.3500307,112.524491 L4.95668626,15.3892998 Z" id="Fill-17"></path>
                        <path d="M88.2848038,0.0469290268 L80.4210767,1.11664768 L50.0339837,5.25736677 L45.254616,5.90867148 L45.2506464,5.90077688 L38.5777916,6.81260348 L8.34948161,10.9414807 L0.485754478,12.0151466 L1.56150917,19.8347505 L13.8751293,109.150337 L14.9548536,116.973889 L22.8225503,115.900223 L43.2380721,113.109481 L45.0243806,112.864748 L45.0283502,112.868695 L51.8361705,111.941079 L66.3171784,109.967429 L73.2004206,109.027971 L73.2004206,109.024024 L74.474654,108.850343 L94.8901758,106.071442 L102.753903,105.001724 L101.678148,97.1781725 L89.3605585,7.86653294 L88.2848038,0.0469290268 Z M81.4968314,8.9401989 L93.8104515,98.2518385 L73.3988993,101.030739 L65.0588233,40.7317637 L65.2374541,102.143878 L50.7564462,104.117528 L34.0643854,46.3645627 L42.1583478,105.285929 L21.7428261,108.076671 L9.42920588,18.7610846 L39.6575159,14.6322074 C41.2929806,19.8860654 43.0911978,26.0872758 45.0442285,33.255575 L51.4947871,55.5144071 L51.1097384,13.080918 L81.4968314,8.9401989 L81.4968314,8.9401989 Z" id="Fill-19"></path>
                    </g>
                    <path d="M63.5003041,24.7093168 L100.996905,19.5857197 L101.993268,22.786981 C103.196049,26.6553363 104.474252,30.9855259 105.80406,35.7143929 L105.653216,18.9620461 L143.435626,13.8108178 L156.825001,110.949956 L128.549722,114.794627 L127.743898,108.988147 L127.759777,114.909099 L106.435222,117.814313 L103.982025,109.327615 L105.172897,117.9801 L76.8936486,121.844508 L63.5003041,24.7093168 Z" id="Fill-22" fill="#29ABE2"></path>
                    <path d="M146.828422,9.36694603 L138.964695,10.4366647 L108.577602,14.5773838 L103.798234,15.2286885 L103.794264,15.2207939 L97.1214095,16.1326205 L66.8930995,20.2614977 L59.0293723,21.3351636 L60.105127,29.1547675 L72.4187472,118.470354 L73.4984715,126.293906 L81.3661682,125.22024 L101.78169,122.429498 L103.567998,122.184765 L103.571968,122.188712 L110.379788,121.261096 L124.860796,119.287446 L131.744038,118.347988 L131.744038,118.344041 L133.018272,118.17036 L153.433794,115.391459 L161.297521,114.321741 L160.221766,106.49819 L147.904176,17.1865499 L146.828422,9.36694603 Z M140.040449,18.2602159 L152.354069,107.571856 L131.942517,110.350756 L123.602441,50.0517807 L123.781072,111.463895 L109.300064,113.437545 L92.6080032,55.6845797 L100.701966,114.605946 L80.2864439,117.396688 L67.9728237,28.0811016 L98.2011337,23.9522244 C99.8365984,29.2060824 101.634816,35.4072928 103.587846,42.575592 L110.038405,64.8344241 L109.653356,22.400935 L140.040449,18.2602159 L140.040449,18.2602159 Z" id="Fill-24" fill="#FFFFFF"></path>
                    <g id="Group-30" transform="translate(151.275779, 11.841904)" fill="#FF3300">
                        <path d="M44.0207508,108.820782 C40.5513426,108.820782 37.2565958,108.390526 34.2159017,107.533961 C29.1864508,106.148459 25.153363,103.882708 22.2436649,100.803813 C19.3617538,97.768338 17.4087231,94.3420804 16.4480861,90.6237226 C15.5985972,87.3316733 14.4593293,80.5304731 13.0660086,70.4174871 L5.24991638,13.6552942 L36.47062,9.39220875 L66.540147,5.29096269 L75.3089371,68.9017234 C76.2814829,75.9713401 76.7181361,80.8738883 76.6387446,83.8975211 C76.5633227,87.3119368 75.4637506,90.9513486 73.3678152,94.6894429 C71.2599711,98.463063 68.1716422,101.569589 64.1980981,103.914286 C60.3714282,106.152406 55.7309956,107.65238 50.3958874,108.378684 C48.2086519,108.670784 46.0611121,108.820782 44.0207508,108.820782" id="Fill-26"></path>
                        <path d="M69.9337363,0.847880323 L62.0660396,1.91759898 L39.8642093,4.94912639 L39.8642093,4.94123179 L31.9965126,6.01884505 L8.64350564,9.20431721 L0.779778507,10.2779832 L1.8555332,18.0975871 L9.1317633,70.9519517 C10.5687493,81.3609853 11.7040476,88.1148178 12.605141,91.6002849 C13.7364698,95.9778421 16.011036,99.9843529 19.3653264,103.521135 C22.7632822,107.121074 27.4156236,109.757871 33.1794458,111.344686 C36.5257971,112.284144 40.1897144,112.769662 44.0203538,112.769662 C46.239346,112.769662 48.5655166,112.603875 50.931383,112.284144 C56.790475,111.494684 61.9271045,109.821028 66.2063058,107.322386 C70.8110123,104.602695 74.3836293,100.998809 76.840796,96.605463 C79.2503277,92.3029045 80.5205915,88.051661 80.6079222,83.9701515 C80.6912832,80.7136279 80.2585996,75.7479228 79.2423885,68.3625221 L71.009491,8.66748423 L69.9337363,0.847880323 Z M63.1457638,9.74115019 L71.3786614,69.436188 C72.3075418,76.1979152 72.744195,80.9978336 72.6727427,83.7964702 C72.6092295,86.5911595 71.6843186,89.5832139 69.9019797,92.7686861 C68.1196407,95.9581056 65.5473564,98.5277987 62.1732181,100.517239 C58.8109885,102.486942 54.7064484,103.809288 49.8595979,104.46454 C47.8430541,104.736904 45.8979625,104.875059 44.0203538,104.875059 C40.9161465,104.875059 38.0064484,104.500066 35.2991986,103.734289 C30.9445753,102.538257 27.5585282,100.663289 25.1370878,98.1014902 C22.7116778,95.5475862 21.0920913,92.7331604 20.2942069,89.6384762 C19.4923528,86.5358973 18.3888111,79.9517987 16.99946,69.8782858 L9.72322991,17.0278684 L33.0762368,13.838449 L42.3134367,80.8083631 C42.8413902,84.7122441 43.3971306,87.1832547 43.9766885,88.2174477 C44.4649461,89.0819067 45.2072566,89.5121625 46.2075894,89.5121625 C46.3901898,89.5121625 46.5807294,89.4963733 46.7792081,89.4687422 C48.263829,89.2753244 49.1371354,88.5569156 49.3911881,87.3095684 C49.65318,86.0543266 49.4745492,83.1925331 48.8632347,78.7439245 L39.7927569,12.9305697 L63.1457638,9.74115019 L63.1457638,9.74115019 Z" id="Fill-28"></path>
                    </g>
                    <path d="M183.387806,108.820782 C179.918398,108.820782 176.623651,108.390526 173.582957,107.533961 C168.553506,106.148459 164.520418,103.882708 161.61072,100.803813 C158.728809,97.768338 156.775778,94.3420804 155.815141,90.6237226 C154.965652,87.3316733 153.826385,80.5304731 152.433064,70.4174871 L144.616972,13.6552942 L175.837675,9.39220875 L205.907202,5.29096269 L214.675992,68.9017234 C215.648538,75.9713401 216.085191,80.8738883 216.0058,83.8975211 C215.930378,87.3119368 214.830806,90.9513486 212.734871,94.6894429 C210.627026,98.463063 207.538697,101.569589 203.565153,103.914286 C199.738484,106.152406 195.098051,107.65238 189.762943,108.378684 C187.575707,108.670784 185.428167,108.820782 183.387806,108.820782" id="Fill-31" fill="#29ABE2"></path>
                    <g id="Group-35" transform="translate(139.367055, 0.000000)">
                        <mask id="mask-2" fill="white">
                            <use xlink:href="#path-1"></use>
                        </mask>
                        <g id="Clip-34"></g>
                        <path d="M69.9337363,0.847880323 L62.0660396,1.91759898 L39.8642093,4.94912639 L39.8642093,4.94123179 L31.9965126,6.01884505 L8.64350564,9.20431721 L0.779778507,10.2779832 L1.8555332,18.0975871 L9.1317633,70.9519517 C10.5687493,81.3609853 11.7040476,88.1148178 12.605141,91.6002849 C13.7364698,95.9778421 16.011036,99.9843529 19.3653264,103.521135 C22.7632822,107.121074 27.4156236,109.757871 33.1794458,111.344686 C36.5257971,112.284144 40.1897144,112.769662 44.0203538,112.769662 C46.239346,112.769662 48.5655166,112.603875 50.931383,112.284144 C56.790475,111.494684 61.9271045,109.821028 66.2063058,107.322386 C70.8110123,104.602695 74.3836293,100.998809 76.840796,96.605463 C79.2503277,92.3029045 80.5205915,88.051661 80.6079222,83.9701515 C80.6912832,80.7136279 80.2585996,75.7479228 79.2423885,68.3625221 L71.009491,8.66748423 L69.9337363,0.847880323 Z M63.1457638,9.74115019 L71.3786614,69.436188 C72.3075418,76.1979152 72.744195,80.9978336 72.6727427,83.7964702 C72.6092295,86.5911595 71.6843186,89.5832139 69.9019797,92.7686861 C68.1196407,95.9581056 65.5473564,98.5277987 62.1732181,100.517239 C58.8109885,102.486942 54.7064484,103.809288 49.8595979,104.46454 C47.8430541,104.736904 45.8979625,104.875059 44.0203538,104.875059 C40.9161465,104.875059 38.0064484,104.500066 35.2991986,103.734289 C30.9445753,102.538257 27.5585282,100.663289 25.1370878,98.1014902 C22.7116778,95.5475862 21.0920913,92.7331604 20.2942069,89.6384762 C19.4923528,86.5358973 18.3888111,79.9517987 16.99946,69.8782858 L9.72322991,17.0278684 L33.0762368,13.838449 L42.3134367,80.8083631 C42.8413902,84.7122441 43.3971306,87.1832547 43.9766885,88.2174477 C44.4649461,89.0819067 45.2072566,89.5121625 46.2075894,89.5121625 C46.3901898,89.5121625 46.5807294,89.4963733 46.7792081,89.4687422 C48.263829,89.2753244 49.1371354,88.5569156 49.3911881,87.3095684 C49.65318,86.0543266 49.4745492,83.1925331 48.8632347,78.7439245 L39.7927569,12.9305697 L63.1457638,9.74115019 L63.1457638,9.74115019 Z" id="Fill-33" fill="#FFFFFF" mask="url(#mask-2)"></path>
                    </g>
                    <g id="Group-41" transform="translate(22.817447, 142.102847)">
                        <polygon id="Fill-36" fill="#FF3300" points="4.71255743 12.87886 31.0348061 9.30655232 40.0020749 27.799659 37.3345209 8.43814603 64.7325242 4.71584088 78.1179295 101.851032 50.7834394 105.565442 43.0626169 88.6275723 45.4959661 106.279904 18.1019323 110.021945"></polygon>
                        <g id="Group-40">
                            <mask id="mask-4" fill="white">
                                <use xlink:href="#path-3"></use>
                            </mask>
                            <g id="Clip-39"></g>
                            <path d="M68.1249226,0.26999541 L60.2611955,1.33971407 L40.7308888,3.99230055 L32.8631921,5.06201921 L32.8671617,5.07386111 L27.639232,5.78042805 L8.10892539,8.43301453 L0.237259113,9.50273319 L1.31698338,17.3262844 L13.626634,106.645819 L14.7063583,114.473317 L22.574055,113.395704 L42.1043616,110.727328 L48.3842285,109.870764 L48.3881981,109.878658 L54.2512597,109.077356 L74.7223555,106.294509 L82.5900522,105.228737 L81.5142975,97.4012389 L69.2006773,8.08565202 L68.1249226,0.26999541 Z M61.3369502,9.15931798 L73.6466008,98.4749049 L53.175505,101.257752 L35.4275373,62.3136775 L41.0246373,102.907724 L21.4943307,105.5761 L9.18468009,16.2565657 L28.7110172,13.6039793 L47.3481696,52.0388522 L41.8066435,11.8158518 L61.3369502,9.15931798 Z" id="Fill-38" fill="#FF3300" mask="url(#mask-4)"></path>
                        </g>
                    </g>
                    <polygon id="Fill-42" fill="#29ABE2" points="15.621281 143.139803 41.9435297 139.567496 50.9107985 158.060602 48.2432444 138.69909 75.6412478 134.976784 89.0266531 232.111975 61.6921629 235.826386 53.9713405 218.888516 56.4046897 236.540847 29.0106559 240.282889"></polygon>
                    <path d="M79.0336462,130.530939 L71.1699191,131.600658 L51.6396124,134.253244 L43.7719157,135.322963 L43.7758853,135.334805 L38.5479556,136.041372 L19.017649,138.693958 L11.1459827,139.763677 L12.225707,147.587228 L24.5353576,236.906762 L25.6150818,244.734261 L33.4827785,243.656647 L53.0130852,240.988272 L59.2929521,240.131707 L59.2969217,240.139602 L65.1599832,239.3383 L85.631079,236.555452 L93.4987758,235.489681 L92.4230211,227.662182 L80.1094009,138.346595 L79.0336462,130.530939 Z M72.2456738,139.420261 L84.5553244,228.735848 L64.0842285,231.518696 L46.3362608,192.574621 L51.9333609,233.168668 L32.4030543,235.837043 L20.0934037,146.517509 L39.6197407,143.864923 L58.2568931,182.299796 L52.7153671,142.076795 L72.2456738,139.420261 Z" id="Fill-44" fill="#FFFFFF"></path>
                    <g id="Group-50" transform="translate(83.793012, 133.111772)" fill="#FF3300">
                        <path d="M43.6777795,108.706617 C40.240128,108.706617 36.9533203,108.284256 33.9126262,107.44348 C28.8553882,106.030347 24.8223005,103.760648 21.9245111,100.689648 C19.0346609,97.6423313 17.0855998,94.2121265 16.1329019,90.4977159 C15.2834129,87.2411924 14.1759017,80.6294626 12.7508244,70.3033224 L4.93473216,13.5332348 L66.2249628,5.18074526 L74.9937529,68.7875587 C75.9623291,75.8374388 76.3989823,80.7360398 76.32753,83.7754618 C76.2481385,87.2096139 75.1485663,90.8450785 73.0566006,94.5792255 C70.9090607,98.3923186 67.8247013,101.49095 63.8749747,103.800121 C60.1038789,106.018505 55.4634463,107.518479 50.0886424,108.252677 C47.8934677,108.556619 45.7379887,108.706617 43.6777795,108.706617" id="Fill-46"></path>
                        <path d="M69.6177582,0.738057629 L61.754031,1.80777629 L38.3930849,4.99324845 L37.0315209,5.17877161 L31.684504,5.90902235 L8.32752751,9.08659992 L0.463800375,10.1602659 L1.53955507,17.9798698 L8.81975475,70.842129 C10.2646799,81.322214 11.3999782,88.0760466 12.2931325,91.4983568 C13.4046133,95.8482829 15.6791795,99.858741 19.0414091,103.403418 C22.4353954,106.995462 27.075828,109.636206 32.831711,111.238811 C36.2336364,112.178268 39.8777058,112.655892 43.6765886,112.655892 C45.9193982,112.655892 48.2574776,112.490105 50.6352528,112.166427 C56.5300709,111.35723 61.6667004,109.687521 65.9022364,107.196774 C70.4513688,104.532346 74.0239859,100.940302 76.5168787,96.5193241 C78.9343496,92.1970292 80.2006438,87.9457856 80.2959136,83.8682234 C80.3713355,80.6195944 79.9267432,75.5078392 78.9264104,68.2526994 L70.6935128,8.55766154 L69.6177582,0.738057629 Z M62.8297857,9.6313275 L71.0626833,69.322418 C71.9915637,76.0880925 72.4282169,80.8880109 72.3607341,83.6827002 C72.2932514,86.4852841 71.3683405,89.4773385 69.5899711,92.6588634 C67.799693,95.8403883 65.2274087,98.4298179 61.8612095,100.399521 C58.4989799,102.377119 54.3944399,103.679729 49.5475894,104.342875 C47.5191368,104.619186 45.5621365,104.761289 43.6765886,104.761289 C40.5803205,104.761289 37.6785615,104.386296 34.9713117,103.636308 C30.6285972,102.428434 27.2425501,100.553466 24.8171401,97.9877202 C22.3956996,95.4338162 20.7761132,92.6312323 19.9782287,89.5207589 C19.1724051,86.4300219 18.0768025,79.8459233 16.6874515,69.7684631 L9.40725178,16.9101511 L32.7642283,13.7286263 L41.993489,80.7103823 C42.5293816,84.5945268 43.0890916,87.073432 43.6607103,88.0997304 C44.1529376,88.972084 44.8992176,89.4062871 45.9114591,89.4062871 C46.0900899,89.4062871 46.2726904,89.3944452 46.46323,89.3668141 C47.9438813,89.1615544 48.8171876,88.4391983 49.07521,87.1957984 C49.3292628,85.9445039 49.1585711,83.0787631 48.543287,78.6301545 L39.4728092,12.8167997 L62.8297857,9.6313275 L62.8297857,9.6313275 Z" id="Fill-48"></path>
                    </g>
                    <path d="M115.562068,229.976485 C112.124416,229.976485 108.837609,229.554124 105.796915,228.713349 C100.739677,227.300215 96.7065889,225.030517 93.8087995,221.959516 C90.9189493,218.9122 88.9698882,215.481995 88.0171903,211.767584 C87.1677013,208.511061 86.0601901,201.899331 84.6351128,191.573191 L76.8190206,134.803103 L138.109251,126.450614 L146.878041,190.057427 C147.846618,197.107307 148.283271,202.005908 148.211818,205.04533 C148.132427,208.479482 147.032855,212.114947 144.940889,215.849094 C142.793349,219.662187 139.70899,222.760818 135.759263,225.06999 C131.988167,227.288373 127.347735,228.788347 121.972931,229.522546 C119.777756,229.826488 117.622277,229.976485 115.562068,229.976485" id="Fill-51" fill="#29ABE2"></path>
                    <path d="M141.502047,122.007926 L133.638319,123.077645 L110.277373,126.263117 L108.915809,126.44864 L103.568792,127.178891 L80.2118159,130.356468 L72.3480888,131.430134 L73.4238435,139.249738 L80.7040431,192.111997 C82.1489683,202.592082 83.2842666,209.345915 84.1774209,212.768225 C85.2889017,217.118151 87.5634679,221.128609 90.9256975,224.673286 C94.3196838,228.26533 98.9601164,230.906075 104.715999,232.508679 C108.117925,233.448137 111.761994,233.92576 115.560877,233.92576 C117.803687,233.92576 120.141766,233.759973 122.519541,233.436295 C128.414359,232.627098 133.550989,230.95739 137.786525,228.466642 C142.335657,225.802214 145.908274,222.21017 148.401167,217.789192 C150.818638,213.466897 152.084932,209.215654 152.180202,205.138092 C152.255624,201.889463 151.811032,196.777707 150.810699,189.522568 L142.577801,129.82753 L141.502047,122.007926 Z M134.714074,130.901196 L142.946972,190.592286 C143.875852,197.357961 144.312505,202.157879 144.245023,204.952568 C144.17754,207.755152 143.252629,210.747207 141.47426,213.928732 C139.683981,217.110257 137.111697,219.699686 133.745498,221.66939 C130.383268,223.646988 126.278728,224.949597 121.431878,225.612744 C119.403425,225.889055 117.446425,226.031158 115.560877,226.031158 C112.464609,226.031158 109.56285,225.656164 106.8556,224.906177 C102.512886,223.698302 99.1268385,221.823334 96.7014285,219.257588 C94.279988,216.703684 92.6604016,213.901101 91.8625171,210.790627 C91.0566935,207.69989 89.9610909,201.115792 88.5717399,191.038331 L81.2915402,138.180019 L104.648517,134.998495 L113.877777,201.980251 C114.41367,205.864395 114.97338,208.3433 115.544999,209.369599 C116.037226,210.241952 116.783506,210.676155 117.795747,210.676155 C117.974378,210.676155 118.156979,210.664313 118.347518,210.636682 C119.82817,210.431423 120.701476,209.709067 120.959498,208.465667 C121.213551,207.214372 121.042859,204.348631 120.427575,199.900023 L111.357098,134.086668 L134.714074,130.901196 L134.714074,130.901196 Z" id="Fill-53" fill="#FFFFFF"></path>
                    <g id="Group-59" transform="translate(145.874257, 122.366341)" fill="#FF3300">
                        <path d="M5.31910842,15.7623636 L42.8157094,10.658503 L43.8120726,13.8558171 C44.9870666,17.6254898 46.2652696,21.9517321 47.6228641,26.7792816 L47.4720203,10.0269348 L85.2544306,4.87965389 L98.647775,102.00695 L70.3685261,105.863463 L69.5627025,100.021458 L69.5785808,105.973988 L48.2540265,108.883149 L45.7968598,100.380662 L46.9877322,109.052883 L18.7084833,112.905449 L5.31910842,15.7623636 Z" id="Fill-55"></path>
                        <path d="M88.6492107,0.431834764 L80.7854836,1.50155342 L50.394421,5.6422725 L45.6110837,6.29357722 L45.6110837,6.28962992 L38.9421985,7.20145652 L8.71388855,11.3184918 L0.846191845,12.3882105 L1.92591612,20.2117617 L14.2355667,109.531296 L15.315291,117.3509 L23.1790181,116.281181 L43.5945399,113.498334 L45.3887876,113.253601 L45.3887876,113.257548 L52.2005775,112.329933 L66.6776157,110.352335 L71.9412716,109.633926 L74.839061,109.235248 L95.2545827,106.452401 L103.11831,105.382682 L102.042555,97.559131 L89.7249654,8.25143867 L88.6492107,0.431834764 Z M81.8612383,9.32510463 L94.1748585,98.6327969 L73.7633063,101.415644 L65.4192606,41.1206167 L65.5978915,102.528783 L51.1208532,104.506381 L34.4287923,46.7494684 L42.5187852,105.674782 L22.1032634,108.45763 L9.78964325,19.1380957 L40.0219228,15.0210604 C41.6573875,20.2709712 43.4516352,26.4761289 45.4086354,33.6483754 L51.859194,55.8914183 L51.4701757,13.4658237 L81.8612383,9.32510463 L81.8612383,9.32510463 Z" id="Fill-57"></path>
                    </g>
                    <path d="M139.284642,126.286801 L176.781243,121.18294 L177.777606,124.380254 C178.9526,128.149927 180.230803,132.476169 181.588398,137.303718 L181.437554,120.551372 L219.219964,115.404091 L232.613309,212.531387 L204.33406,216.3879 L203.528236,210.545894 L203.544115,216.498425 L182.21956,219.407586 L179.762394,210.905099 L180.953266,219.57732 L152.674017,223.429886 L139.284642,126.286801 Z" id="Fill-60" fill="#29ABE2"></path>
                    <path d="M222.614745,110.956272 L214.751017,112.02599 L184.359955,116.166709 L179.576618,116.818014 L179.576618,116.814067 L172.907732,117.725893 L142.679422,121.842929 L134.811726,122.912647 L135.89145,130.736199 L148.201101,220.055733 L149.280825,227.875337 L157.144552,226.805618 L177.560074,224.022771 L179.354321,223.778038 L179.354321,223.781985 L186.166111,222.854369 L200.64315,220.876771 L205.906805,220.158363 L208.804595,219.759685 L229.220117,216.976838 L237.083844,215.907119 L236.008089,208.083568 L223.690499,118.775876 L222.614745,110.956272 Z M215.826772,119.849542 L228.140392,209.157234 L207.72884,211.940081 L199.384794,151.645054 L199.563425,213.05322 L185.086387,215.030818 L168.394326,157.273905 L176.484319,216.199219 L156.068797,218.982067 L143.755177,129.662533 L173.987457,125.545497 C175.622921,130.795408 177.417169,137.000566 179.374169,144.172812 L185.824728,166.415855 L185.43571,123.990261 L215.826772,119.849542 L215.826772,119.849542 Z" id="Fill-62" fill="#FFFFFF"></path>
                    <g id="Group-69" transform="translate(230.667269, 115.897153)">
                        <path d="M39.960273,106.446831 C36.8560657,106.446831 33.8709457,106.079732 31.0882739,105.357376 C26.3684498,104.137659 22.3115446,101.844277 19.0485544,98.5324916 C15.8014424,95.2128112 13.5903894,91.3760343 12.4709694,87.1208435 C11.4865149,83.3590654 10.3670949,76.9249642 9.0571353,67.4395992 L6.95723038,52.1477538 C5.68299696,42.966331 5.01610844,36.5638082 4.92480822,32.5691393 C4.82159929,28.1007942 5.84574951,23.8219196 7.96550231,19.8469872 C10.1090726,15.8325817 13.3204583,12.508954 17.4964507,9.97083927 C21.5533559,7.51167055 26.4359326,5.88538241 32.0131848,5.13934246 C34.0138503,4.86303136 36.0105463,4.72092852 37.9318204,4.72092852 C41.0201494,4.72092852 44.0052694,5.08408024 46.8157282,5.81038368 C51.5315827,7.01431058 55.5884879,9.31163995 58.8633869,12.6313204 C62.1144684,15.9352116 64.3215518,19.7759357 65.4330327,24.0508631 C66.437335,27.8679034 67.5567551,34.3020046 68.8548059,43.7123709 L70.96265,59.0042162 C72.2289443,68.2053756 72.8918632,74.6157929 72.9831634,78.59862 C73.0903419,83.0472286 72.0622221,87.3261032 69.9384998,91.3049829 C67.8068383,95.3075465 64.6033916,98.6311742 60.4154905,101.181131 C56.3744636,103.632405 51.4998261,105.26264 45.9146348,106.032364 C43.8703039,106.308675 41.8696383,106.446831 39.960273,106.446831" id="Fill-64" fill="#FF3300"></path>
                        <g id="Group-68">
                            <mask id="mask-6" fill="white">
                                <use xlink:href="#path-5"></use>
                            </mask>
                            <g id="Clip-67"></g>
                            <path d="M37.9326143,0.771653549 L37.9326143,0.771653549 C35.8287398,0.771653549 33.6454738,0.9255983 31.44236,1.2334878 C25.3570022,2.04663187 19.9583809,3.85449588 15.4330659,6.60181759 C10.6338503,9.51492597 6.942146,13.3477555 4.46116192,17.9897819 C2.01590401,22.576546 0.83694038,27.5067254 0.956027616,32.6540063 C1.0512974,36.8065673 1.73009465,43.3551402 3.02417594,52.6905078 L5.12408087,67.9665639 C6.45785791,77.6216629 7.60506494,84.2057615 8.63318474,88.1175371 C9.92329646,93.0437691 12.4677937,97.4726412 16.1912546,101.273892 C19.9901375,105.126458 24.6623267,107.775098 30.1046133,109.180337 C33.1929423,109.981639 36.5154762,110.392158 39.9610669,110.392158 C42.0450935,110.392158 44.2243899,110.242161 46.4354429,109.946113 C52.5843139,109.097444 57.9749961,107.285632 62.4764936,104.558047 C67.2915875,101.621255 70.9793222,97.784478 73.4483976,93.146399 C75.8936555,88.5714768 77.0726191,83.6412974 76.9535319,78.5019111 C76.8582621,74.3730339 76.1834344,67.8165664 74.8933227,58.4654096 L72.7854786,43.1775116 C71.4675799,33.6053059 70.3203728,27.0212073 69.2724052,23.0462749 C67.986263,18.1121482 65.4417658,13.6793289 61.7063961,9.87807769 C57.9075133,6.0255116 53.2313545,3.36897782 47.7930374,1.98347505 C44.6769214,1.18217289 41.350418,0.771653549 37.9326143,0.771653549 M42.5412903,87.0478184 C42.7596169,87.0478184 42.9858827,87.0359765 43.2240571,87.0004508 C44.8198261,86.779402 45.744737,85.9465214 45.9908506,84.4978618 C46.2449034,83.033413 46.0067289,79.6782069 45.2842663,74.4125069 L39.6276226,33.3645205 C39.0560039,29.2159068 38.4526286,26.5948988 37.8373445,25.5054436 C37.3093911,24.5778278 36.4876892,24.1002043 35.3682692,24.1002043 C35.1658209,24.1002043 34.9514638,24.1159935 34.7291677,24.147572 C33.5144779,24.3133586 32.6491106,24.9133484 32.1330659,25.9435941 C31.6090821,26.9738397 31.6686257,29.7724763 32.3077272,34.3671351 L38.0517015,76.0782681 C38.7622554,81.265022 39.4212048,84.434705 40.0087018,85.587317 C40.5128377,86.5583531 41.3583571,87.0478184 42.5412903,87.0478184 M37.9326143,8.66625618 C40.7073469,8.66625618 43.3352052,8.98993489 45.8201589,9.62939771 C49.8651553,10.6635907 53.2631111,12.5898737 56.0299046,15.3964049 C58.7887589,18.2029362 60.6465197,21.4160394 61.5912785,25.039662 C62.5439764,28.6553901 63.6554572,35.0618601 64.9217515,44.2511776 L67.0295956,59.5430229 C68.2681028,68.5112915 68.9310218,74.9019723 69.0183524,78.6874343 C69.105683,82.4926327 68.2403158,86.0688877 66.4301898,89.4556722 C64.6200638,92.858246 61.9207532,95.6331988 58.3441665,97.8160564 C54.7556711,99.9910195 50.4367741,101.42389 45.371597,102.122562 C43.5098665,102.371242 41.7076797,102.497556 39.9610669,102.497556 C37.1903039,102.497556 34.5703847,102.177824 32.0933702,101.534414 C28.0523433,100.496274 24.6424788,98.5660437 21.8836245,95.7674071 C19.1208006,92.9490339 17.2630398,89.7398779 16.3143114,86.1202026 C15.3616136,82.5044746 14.2620414,76.0940573 12.987808,66.9007925 L10.8918726,51.6128945 C9.64542625,42.6485732 8.9825073,36.2736816 8.89120709,32.4763777 C8.80784602,28.6909158 9.66527412,25.0870297 11.4714305,21.6962978 C13.2894957,18.2976714 15.9808672,15.514824 19.5693626,13.3398609 C23.1459492,11.1688452 27.4727854,9.73202754 32.5419321,9.05309171 C34.3917538,8.79256983 36.1939407,8.66625618 37.9326143,8.66625618" id="Fill-66" fill="#FF3300" mask="url(#mask-6)"></path>
                        </g>
                    </g>
                    <path d="M258.718819,210.502079 C255.614611,210.502079 252.629491,210.13498 249.84682,209.412624 C245.126996,208.192908 241.07009,205.899526 237.8071,202.58774 C234.559988,199.26806 232.348935,195.431283 231.229515,191.176092 C230.245061,187.414314 229.125641,180.980213 227.815681,171.494848 L225.715776,156.203002 C224.441543,147.02158 223.774654,140.619057 223.683354,136.624388 C223.580145,132.156043 224.604295,127.877168 226.724048,123.902236 C228.867618,119.88783 232.079004,116.564203 236.254997,114.026088 C240.311902,111.566919 245.194478,109.940631 250.771731,109.194591 C252.772396,108.91828 254.769092,108.776177 256.690366,108.776177 C259.778695,108.776177 262.763815,109.139329 265.574274,109.865632 C270.290128,111.069559 274.347034,113.366889 277.621933,116.686569 C280.873014,119.99046 283.080098,123.831184 284.191578,128.106112 C285.195881,131.923152 286.315301,138.357253 287.613352,147.76762 L289.721196,163.059465 C290.98749,172.260624 291.650409,178.671042 291.741709,182.653869 C291.848888,187.102477 290.820768,191.381352 288.697046,195.360232 C286.565384,199.362795 283.361937,202.686423 279.174036,205.236379 C275.133009,207.687654 270.258372,209.317889 264.673181,210.087613 C262.62885,210.363924 260.628184,210.502079 258.718819,210.502079" id="Fill-70" fill="#29ABE2"></path>
                    <path d="M256.69116,104.826902 L256.69116,104.826902 C254.587286,104.826902 252.40402,104.980847 250.200906,105.288736 C244.115548,106.10188 238.716927,107.909744 234.191612,110.657066 C229.392396,113.570175 225.700692,117.403004 223.219708,122.045031 C220.77445,126.631795 219.595486,131.561974 219.714573,136.709255 C219.809843,140.861816 220.48864,147.410389 221.782722,156.745756 L223.882627,172.021812 C225.216404,181.676912 226.363611,188.26101 227.391731,192.172786 C228.681842,197.099018 231.22634,201.52789 234.9498,205.329141 C238.748683,209.181707 243.420872,211.830346 248.863159,213.235586 C251.951488,214.036888 255.274022,214.447407 258.719613,214.447407 C260.803639,214.447407 262.982936,214.29741 265.193989,214.001362 C271.34286,213.152692 276.733542,211.340881 281.235039,208.613296 C286.050133,205.676504 289.737868,201.839727 292.206943,197.201648 C294.652201,192.626725 295.831165,187.696546 295.712078,182.55716 C295.616808,178.428283 294.94198,171.871815 293.651868,162.520658 L291.544024,147.23276 C290.226126,137.660555 289.078919,131.076456 288.030951,127.101524 C286.744809,122.167397 284.200312,117.734577 280.464942,113.933326 C276.666059,110.08076 271.9899,107.424226 266.551583,106.038724 C263.435467,105.237422 260.108964,104.826902 256.69116,104.826902 M261.299836,191.103067 C261.518163,191.103067 261.744428,191.091225 261.982603,191.055699 C263.578372,190.834651 264.503283,190.00177 264.749396,188.55311 C265.003449,187.088662 264.765275,183.733456 264.042812,178.467756 L258.386168,137.419769 C257.81455,133.271155 257.211174,130.650147 256.59589,129.560692 C256.067937,128.633076 255.246235,128.155453 254.126815,128.155453 C253.924367,128.155453 253.71001,128.171242 253.487713,128.202821 C252.273024,128.368607 251.407656,128.968597 250.891612,129.998843 C250.367628,131.029088 250.427171,133.827725 251.066273,138.422384 L256.810247,180.133517 C257.520801,185.320271 258.179751,188.489954 258.767248,189.642566 C259.271384,190.613602 260.116903,191.103067 261.299836,191.103067 M256.69116,112.721505 C259.465893,112.721505 262.093751,113.045184 264.578705,113.684646 C268.623701,114.718839 272.021657,116.645122 274.78845,119.451654 C277.547305,122.258185 279.405066,125.471288 280.349824,129.094911 C281.302522,132.710639 282.414003,139.117109 283.680297,148.306426 L285.788141,163.598271 C287.026649,172.56654 287.689568,178.957221 287.776898,182.742683 C287.864229,186.547881 286.998862,190.124136 285.188736,193.510921 C283.37861,196.913495 280.679299,199.688447 277.102712,201.871305 C273.514217,204.046268 269.19532,205.479138 264.130143,206.177811 C262.268412,206.426491 260.466225,206.552804 258.719613,206.552804 C255.94885,206.552804 253.32893,206.233073 250.851916,205.589663 C246.810889,204.551523 243.401025,202.621292 240.64217,199.822656 C237.879346,197.004283 236.021586,193.795127 235.072857,190.175451 C234.120159,186.559723 233.020587,180.149306 231.746354,170.956041 L229.650418,155.668143 C228.403972,146.703822 227.741053,140.32893 227.649753,136.531626 C227.566392,132.746164 228.42382,129.142278 230.229976,125.751546 C232.048041,122.35292 234.739413,119.570073 238.327908,117.39511 C241.904495,115.224094 246.231331,113.787276 251.300478,113.10834 C253.1503,112.847818 254.952486,112.721505 256.69116,112.721505" id="Fill-72" fill="#FFFFFF"></path>
                </g>
            </g>
        </g>
    </g>
</svg>